<?xml version="1.0" encoding="UTF-8" standalone="no"?>
<svg
   xmlns:osb="http://www.openswatchbook.org/uri/2009/osb"
   xmlns:dc="http://purl.org/dc/elements/1.1/"
   xmlns:cc="http://creativecommons.org/ns#"
   xmlns:rdf="http://www.w3.org/1999/02/22-rdf-syntax-ns#"
   xmlns:svg="http://www.w3.org/2000/svg"
   xmlns="http://www.w3.org/2000/svg"
   id="svg8"
   version="1.1"
   viewBox="0 0 534.46899 534.46899"
   height="534.46899mm"
   width="534.46899mm">
  <defs
     id="defs2">
    <linearGradient
       osb:paint="solid"
       id="linearGradient5995">
      <stop
         id="stop5993"
         offset="0"
         style="stop-color:#000000;stop-opacity:1;" />
    </linearGradient>
  </defs>
  <metadata
     id="metadata5">
    <rdf:RDF>
      <cc:Work
         rdf:about="">
        <dc:format>image/svg+xml</dc:format>
        <dc:type
           rdf:resource="http://purl.org/dc/dcmitype/StillImage" />
        <dc:title></dc:title>
      </cc:Work>
    </rdf:RDF>
  </metadata>
  <g
     transform="translate(157.60463,116.19462)"
     id="layer1">
    <path
       id="path36"
       d="M 105.62462,-116.1646 A 267.23453,267.23453 0 0 0 -157.57461,155.04514 267.23453,267.23453 0 0 0 113.6351,418.24439 267.23453,267.23453 0 0 0 376.83436,147.03467 267.23453,267.23453 0 0 0 105.62462,-116.1646 Z m 0.54372,36.277708 a 230.95269,230.95269 0 0 1 23.07156,0.808265 230.95269,230.95269 0 0 1 22.87551,3.107053 230.95269,230.95269 0 0 1 22.45098,5.375521 230.95269,230.95269 0 0 1 21.80217,7.590137 230.95269,230.95269 0 0 1 20.93589,9.728954 230.95269,230.95269 0 0 1 19.85942,11.769996 230.95269,230.95269 0 0 1 18.58585,13.694458 230.95269,230.95269 0 0 1 17.12513,15.480893 230.95269,230.95269 0 0 1 15.49449,17.1136248 230.95269,230.95269 0 0 1 13.70857,18.5748792 230.95269,230.95269 0 0 1 11.78568,19.850533 230.95269,230.95269 0 0 1 9.74464,20.928039 230.95269,230.95269 0 0 1 7.60687,21.796425 230.95269,230.95269 0 0 1 5.39329,22.446804 230.95269,230.95269 0 0 1 3.12483,22.87342 230.95269,230.95269 0 0 1 0.82343,16.32628 230.95269,230.95269 0 0 1 -0.80826,23.07155 230.95269,230.95269 0 0 1 -3.10706,22.87551 230.95269,230.95269 0 0 1 -5.37552,22.45097 230.95269,230.95269 0 0 1 -7.59013,21.8022 230.95269,230.95269 0 0 1 -9.72896,20.93589 230.95269,230.95269 0 0 1 -11.77051,19.85941 230.95269,230.95269 0 0 1 -13.69394,18.58533 230.95269,230.95269 0 0 1 -15.4809,17.12564 230.95269,230.95269 0 0 1 -17.11362,15.49449 230.95269,230.95269 0 0 1 -18.57488,13.70858 230.95269,230.95269 0 0 1 -19.85054,11.78514 230.95269,230.95269 0 0 1 -20.92803,9.74518 230.95269,230.95269 0 0 1 -21.79643,7.60685 230.95269,230.95269 0 0 1 -22.4468,5.39277 230.95269,230.95269 0 0 1 -22.87342,3.12537 230.95269,230.95269 0 0 1 -16.32627,0.82343 230.95269,230.95269 0 0 1 -23.07154,-0.80829 230.95269,230.95269 0 0 1 -22.875511,-3.10755 230.95269,230.95269 0 0 1 -22.450993,-5.37554 230.95269,230.95269 0 0 1 -21.802168,-7.59012 230.95269,230.95269 0 0 1 -20.9358856,-9.72844 230.95269,230.95269 0 0 1 -19.8594204,-11.77051 230.95269,230.95269 0 0 1 -18.585855,-13.69393 230.95269,230.95269 0 0 1 -17.125116,-15.48143 230.95269,230.95269 0 0 1 -15.494494,-17.11309 230.95269,230.95269 0 0 1 -13.708575,-18.57489 230.95269,230.95269 0 0 1 -11.785683,-19.85053 230.95269,230.95269 0 0 1 -9.744649,-20.92804 230.95269,230.95269 0 0 1 -7.60686,-21.79642 230.95269,230.95269 0 0 1 -5.39329,-22.44682 230.95269,230.95269 0 0 1 -3.12482,-22.8734 230.95269,230.95269 0 0 1 -0.82343,-16.32628 230.95269,230.95269 0 0 1 0.80826,-23.07155 230.95269,230.95269 0 0 1 3.10707,-22.8755 230.95269,230.95269 0 0 1 5.37602,-22.451001 230.95269,230.95269 0 0 1 7.58962,-21.802699 230.95269,230.95269 0 0 1 9.728968,-20.935361 230.95269,230.95269 0 0 1 11.770497,-19.859943 230.95269,230.95269 0 0 1 13.693936,-18.5853355 230.95269,230.95269 0 0 1 15.480897,-17.1251245 230.95269,230.95269 0 0 1 17.113634,-15.49449 230.95269,230.95269 0 0 1 18.574878,-13.708572 230.95269,230.95269 0 0 1 19.8505371,-11.785681 230.95269,230.95269 0 0 1 20.9280349,-9.744629 230.95269,230.95269 0 0 1 21.796422,-7.607397 230.95269,230.95269 0 0 1 22.446794,-5.39278 230.95269,230.95269 0 0 1 22.873417,-3.124829 230.95269,230.95269 0 0 1 16.326265,-0.82342 z"
       style="fill:#000000;fill-opacity:1;stroke:none;stroke-width:5.77591658;stroke-miterlimit:4;stroke-dasharray:none;stroke-opacity:1" />
    <path
       id="path16"
       d="m 155.82617,355.38738 c -2.59321,-0.39404 -2.3476,0.0292 -7.98663,-13.76235 L 71.306611,160.25316 -3.7749543,-17.546828 c -2.82404,-6.728735 -3.46716,-8.482539 -3.39184,-9.249595 0.16746,-1.705329 -3.2622897,-1.589976 49.9526053,-1.680094 26.55755,-0.04497 48.39198,0.09249 50.46484,0.08953 1.59698,0.125579 2.40907,0.326036 3.04271,0.751052 1.02581,0.688067 2.79175,3.91093 3.64355,6.649524 18.607909,44.377714 4.056169,9.441686 6.131779,14.6830013 l 12.47613,29.6947127 c 0,1.098764 -0.66681,1.605185 -2.39824,1.821397 -0.83952,0.104836 -10.24772,0.200657 -20.907119,0.212937 -19.01265,0.02191 -19.39078,0.03237 -19.9099,0.551492 -0.7162,0.716198 -0.6789,2.101003 0.0982,3.646815 4.95485,11.406917 0,0 14.14181,33.13164 11.817619,28.585344 3.85112,9.392671 10.602959,25.398624 1.42174,3.26429 1.86989,5.0591 3.69466,6.82674 l 2.65155,1.14512 c 1.47751,0.21222 12.43848,0.18432 18.65772,0.17929 11.07443,0.0106 20.7635,-0.0857 21.53124,0.0236 1.6357,0.23284 2.66115,0.90789 3.28938,2.16534 3.69919,8.532182 0,0 10.3179,23.923352 10.78648,25.68972 6.07722,14.42864 9.44031,22.09271 0.73644,1.67349 1.3422,3.29215 1.34617,3.59701 0.004,0.30488 -0.24326,0.78113 -0.54941,1.05833 -0.53348,0.48305 -1.39012,0.5111 -20.57135,0.67358 -20.19369,0.17105 -21.78074,0.25265 -22.53274,1.15877 -0.56703,0.6832 0.28478,3.9707 0.75483,5.89526 0.83458,3.41708 1.16633,1.5551 24.06356,89.18466 27.7402,106.16397 28.80549,102.25768 29.31922,103.85334 1.07519,3.33954 1.079,4.24219 0.0212,5.02891 -0.73014,0.54308 -1.00766,0.55626 -12.56771,0.59695 -6.5016,0.0227 -12.44745,-0.0536 -13.213,-0.16989 z"
       style="fill:#000000;stroke-width:0.26458332" />
    <path
       id="path14"
       d="m 118.77061,354.69116 c -3.47492,-0.34127 0,0 -10.34645,-1.68667 -1.51503,-0.16671 -3.65774,-0.58738 -4.76158,-0.93485 -1.10384,-0.34745 -3.3762,-0.93141 -5.049689,-1.2977 -3.28815,-0.71967 -5.87422,-1.42124 -8.99583,-2.44044 -1.0914,-0.35634 -3.23453,-1.0454 -4.7625,-1.53125 -1.52797,-0.48583 -4.20687,-1.49865 -5.95312,-2.25071 -1.74625,-0.75202 -3.77933,-1.59943 -4.51796,-1.88311 -3.25004,-1.24818 -9.92608,-4.09805 -18.92527,-10.01337 -8.87961,-5.64652 -10.90659,-7.40062 -15.35615,-10.99635 -2.06997,-1.68002 -11.287345,-10.73795 -13.225635,-12.99689 -4.00871,-4.6718 -7.57163,-9.51153 -10.11049,-13.73375 -5.36454,-9.3308 -2.52704,-3.49898 -6.8202803,-13.01351 -3.16891,-7.61426 -3.75468,-10.20331 -4.59166,-13.70941 -2.27411,-9.52637 -2.78397,-13.98487 -2.78362,-24.34166 0.24325,-8.85564 0.38849,-9.26977 1.33546,-15.91165 0.97836,-5.19295 1.58771,-7.42839 3.16122,-12.57493 2.08966,-5.19582 5.8151503,-12.5867 7.7387503,-15.26815 4.38133,-6.10754 9.98089,-11.64937 14.75084,-14.59878 5.579475,-3.44998 9.842995,-5.46484 13.177215,-6.22729 0.97446,-0.22286 2.72424,-0.7062 3.88841,-1.0741 2.7135,-0.85757 11.19667,-1.45571 12.57114,-0.88638 1.10508,0.45773 1.91894,1.5871 2.85906,3.96751 l 8.2134,20.17283 9.52527,22.4249 c 0.60521,1.30095 0.71104,2.40868 0.30295,3.17121 -0.28722,0.53666 -1.33478,0.93126 -3.17703,1.19666 -2.09371,0.30168 -7.43955,2.27449 -9.91,3.6572 -1.92945,1.0799 -3.00834,1.95731 -5.56837,4.52853 -2.60668,2.61805 -3.40587,3.61551 -4.46312,5.57035 -1.4486,2.67846 -2.32902,5.7354 -2.84685,9.88468 -0.85403,6.84318 1.85821,15.98842 6.81962,22.99472 0.54292,0.76669 2.54228,2.98382 4.44303,4.92694 3.01726,3.08457 3.99322,3.88525 7.68923,6.30846 5.5008,3.60646 11.62519,6.47848 17.09357,8.01598 1.26634,0.35605 2.60991,0.76425 2.98572,0.90715 0.98171,0.37325 10.429149,2.06605 13.347579,2.39165 1.35885,0.1516 2.8017,0.44685 3.20638,0.65614 1.00502,0.51969 2.2602,2.56026 2.9388,4.77758 l 8.01135,19.23931 12.17139,28.96309 c 0.88156,1.73212 0.92358,3.06506 0.11445,3.6318 -0.48826,0.342 -1.46462,0.40566 -5.75468,0.37518 -2.84165,-0.0201 -6.63271,-0.19609 -8.42455,-0.39092 z"
       style="fill:#ffdb4c;stroke-width:0.26458332;fill-opacity:1" />
    <path
       id="path32"
       d="m 190.76688,148.84324 c -0.99652,-0.49139 -1.38871,-1.04252 -2.14185,-3.00987 -3.80671,-7.21138 0,0 -9.3368,-22.64779 -8.29649,-19.68555 -5.76296,-13.98978 -8.29649,-19.68555 -1.32326,-2.94628 -2.33042,-5.780142 -2.33042,-6.557142 0,-0.85732 0.85532,-1.57576 2.13556,-1.79379 6.01612,-1.02458 8.46396,-1.89401 12.54468,-4.4557 5.15906,-3.23859 7.98746,-6.55962 10.40294,-12.214799 0.93856,-2.197393 1.23474,-3.26966 1.43923,-5.210669 0.98221,-9.322877 -0.66476,-15.743523 -6.2806,-24.484443 -3.89437,-6.061514 -12.85999,-13.188551 -20.70483,-16.458877 -1.81901,-0.758301 -4.09845,-1.721604 -5.0654,-2.14067 l -7.45559,-2.239637 c -1.13847,-0.356346 -4.59128,-1.065694 -7.67291,-1.576326 -7.98499,-1.323129 -8.4132,-1.409356 -9.04068,-1.8205 L 128.49667,0.44346524 117.89765,-25.143058 c -0.66649,-1.31019 -0.63506,-2.199671 0.096,-2.716612 0.50766,-0.358981 1.2187,-0.398838 4.82865,-0.270671 2.32833,0.08266 5.60255,0.273537 7.27604,0.424161 4.39901,0.395941 14.79603,2.00764 17.72708,2.747971 10.15761,2.467391 3.31724,0.56012 13.39387,3.552293 6.12874,1.977137 10.08674,3.326287 16.10717,5.983615 1.74625,0.82876 3.76582,1.739794 4.48792,2.024526 2.3132,0.912116 10.35441,5.3719523 15.29363,8.4821873 11.06492,6.967617 24.35383,19.1450027 31.36426,28.7408467 3.23784,4.431909 7.73705,11.673057 8.66807,13.950585 0.23238,0.568468 1.17242,2.581389 2.08896,4.473159 0.91652,1.891771 1.9694,4.285345 2.33971,5.319051 0.37034,1.033709 0.97219,2.589535 1.33744,3.457393 0.36529,0.867859 0.85511,2.403348 1.0885,3.412198 0.23339,1.008851 0.70916,2.737414 1.05725,3.84125 0.34811,1.103839 0.7692,3.246964 0.93575,4.7625 l 0.82876,4.872191 c 0.48119,1.93671 1.0873,9.628819 1.11537,14.155212 0.0183,2.95 -0.66553,11.83053 -1.04926,13.62604 -0.21769,1.01864 -0.68672,3.34036 -1.04227,5.159362 -0.70736,3.619 -1.94683,8.11416 -2.80874,10.18646 -0.30263,0.7276 -0.82184,2.09682 -1.15382,3.04271 -0.96282,2.74334 -3.38492,7.23397 -6.13645,11.37708 -2.14643,3.23196 -3.23893,4.53863 -6.93357,8.29284 -4.37906,4.44966 -5.92132,5.70838 -9.41276,7.68228 -6.02845,3.40819 -10.77912,5.41698 -14.81667,6.26509 -1.4552,0.30568 -3.71739,0.78293 -5.02708,1.06056 -3.03488,0.64333 -7.56049,0.68559 -8.78454,0.082 z"
       style="fill:#366b98;stroke-width:0.26458332;fill-opacity:1" />
  </g>
  <circle
     r="8.0756445"
     cy="112.82344"
     cx="193.28806"
     id="path873"
     style="fill:#17a717;fill-opacity:1;stroke:none;stroke-width:2.99334574;stroke-miterlimit:4;stroke-dasharray:none;stroke-opacity:1" />
  <path
     id="path829"
     d="m 156.55506,118.72358 -19.02987,4.54367 -1.59938,-0.70797 c -1.39818,-0.61902 -3.28971,-1.45333 -4.20382,-1.85447 l -1.66221,-0.72957 -6.34362,-2.77609 -1.2058,3.08688 6.34315,2.77554 0.10394,-0.26574 c -0.0338,0.12799 -0.0534,0.22552 -0.0373,0.24359 0.0519,0.0581 1.51789,0.73516 3.25784,1.50461 l 3.16362,1.39865 -0.80018,0.75671 c -0.44006,0.41594 -1.53994,1.46813 -2.44425,2.33826 -0.70588,0.67918 -1.27978,1.28306 -1.47485,1.54267 l -0.0239,-0.0233 -4.9828,4.80722 2.39411,2.29143 4.98335,-4.8077 -0.0439,-0.0417 c 0.36968,-0.32194 1.63781,-1.51493 3.09349,-2.91251 l 2.08961,-2.00672 19.28963,-4.60579 z"
     style="fill:#a20000;fill-opacity:1;stroke-width:0.18035384" />
</svg>
