<?xml version="1.0" encoding="UTF-8" standalone="no"?>
<svg
   xmlns:osb="http://www.openswatchbook.org/uri/2009/osb"
   xmlns:dc="http://purl.org/dc/elements/1.1/"
   xmlns:cc="http://creativecommons.org/ns#"
   xmlns:rdf="http://www.w3.org/1999/02/22-rdf-syntax-ns#"
   xmlns:svg="http://www.w3.org/2000/svg"
   xmlns="http://www.w3.org/2000/svg"
   id="svg8"
   version="1.1"
   viewBox="0 0 534.46899 534.46899"
   height="534.46899mm"
   width="534.46899mm">
  <defs
     id="defs2">
    <linearGradient
       osb:paint="solid"
       id="linearGradient5995">
      <stop
         id="stop5993"
         offset="0"
         style="stop-color:#000000;stop-opacity:1;" />
    </linearGradient>
  </defs>
  <metadata
     id="metadata5">
    <rdf:RDF>
      <cc:Work
         rdf:about="">
        <dc:format>image/svg+xml</dc:format>
        <dc:type
           rdf:resource="http://purl.org/dc/dcmitype/StillImage" />
        <dc:title></dc:title>
      </cc:Work>
    </rdf:RDF>
  </metadata>
  <g
     transform="translate(157.60463,116.55821)"
     id="layer1">
    <path
       id="path36"
       d="M 105.62462,-116.1646 A 267.23453,267.23453 0 0 0 -157.57461,155.04514 267.23453,267.23453 0 0 0 113.6351,418.24439 267.23453,267.23453 0 0 0 376.83436,147.03467 267.23453,267.23453 0 0 0 105.62462,-116.1646 Z m 0.54372,36.277708 a 230.95269,230.95269 0 0 1 23.07156,0.808265 230.95269,230.95269 0 0 1 22.87551,3.107053 230.95269,230.95269 0 0 1 22.45098,5.375521 230.95269,230.95269 0 0 1 21.80217,7.590137 230.95269,230.95269 0 0 1 20.93589,9.728954 230.95269,230.95269 0 0 1 19.85942,11.769996 230.95269,230.95269 0 0 1 18.58585,13.694458 230.95269,230.95269 0 0 1 17.12513,15.480893 230.95269,230.95269 0 0 1 15.49449,17.1136248 230.95269,230.95269 0 0 1 13.70857,18.5748792 230.95269,230.95269 0 0 1 11.78568,19.850533 230.95269,230.95269 0 0 1 9.74464,20.928039 230.95269,230.95269 0 0 1 7.60687,21.796425 230.95269,230.95269 0 0 1 5.39329,22.446804 230.95269,230.95269 0 0 1 3.12483,22.87342 230.95269,230.95269 0 0 1 0.82343,16.32628 230.95269,230.95269 0 0 1 -0.80826,23.07155 230.95269,230.95269 0 0 1 -3.10706,22.87551 230.95269,230.95269 0 0 1 -5.37552,22.45097 230.95269,230.95269 0 0 1 -7.59013,21.8022 230.95269,230.95269 0 0 1 -9.72896,20.93589 230.95269,230.95269 0 0 1 -11.77051,19.85941 230.95269,230.95269 0 0 1 -13.69394,18.58533 230.95269,230.95269 0 0 1 -15.4809,17.12564 230.95269,230.95269 0 0 1 -17.11362,15.49449 230.95269,230.95269 0 0 1 -18.57488,13.70858 230.95269,230.95269 0 0 1 -19.85054,11.78514 230.95269,230.95269 0 0 1 -20.92803,9.74518 230.95269,230.95269 0 0 1 -21.79643,7.60685 230.95269,230.95269 0 0 1 -22.4468,5.39277 230.95269,230.95269 0 0 1 -22.87342,3.12537 230.95269,230.95269 0 0 1 -16.32627,0.82343 230.95269,230.95269 0 0 1 -23.07154,-0.80829 230.95269,230.95269 0 0 1 -22.875511,-3.10755 230.95269,230.95269 0 0 1 -22.450993,-5.37554 230.95269,230.95269 0 0 1 -21.802168,-7.59012 230.95269,230.95269 0 0 1 -20.9358856,-9.72844 230.95269,230.95269 0 0 1 -19.8594204,-11.77051 230.95269,230.95269 0 0 1 -18.585855,-13.69393 230.95269,230.95269 0 0 1 -17.125116,-15.48143 230.95269,230.95269 0 0 1 -15.494494,-17.11309 230.95269,230.95269 0 0 1 -13.708575,-18.57489 230.95269,230.95269 0 0 1 -11.785683,-19.85053 230.95269,230.95269 0 0 1 -9.744649,-20.92804 230.95269,230.95269 0 0 1 -7.60686,-21.79642 230.95269,230.95269 0 0 1 -5.39329,-22.44682 230.95269,230.95269 0 0 1 -3.12482,-22.8734 230.95269,230.95269 0 0 1 -0.82343,-16.32628 230.95269,230.95269 0 0 1 0.80826,-23.07155 230.95269,230.95269 0 0 1 3.10707,-22.8755 230.95269,230.95269 0 0 1 5.37602,-22.451001 230.95269,230.95269 0 0 1 7.58962,-21.802699 230.95269,230.95269 0 0 1 9.728968,-20.935361 230.95269,230.95269 0 0 1 11.770497,-19.859943 230.95269,230.95269 0 0 1 13.693936,-18.5853355 230.95269,230.95269 0 0 1 15.480897,-17.1251245 230.95269,230.95269 0 0 1 17.113634,-15.49449 230.95269,230.95269 0 0 1 18.574878,-13.708572 230.95269,230.95269 0 0 1 19.8505371,-11.785681 230.95269,230.95269 0 0 1 20.9280349,-9.744629 230.95269,230.95269 0 0 1 21.796422,-7.607397 230.95269,230.95269 0 0 1 22.446794,-5.39278 230.95269,230.95269 0 0 1 22.873417,-3.124829 230.95269,230.95269 0 0 1 16.326265,-0.82342 z"
       style="fill:#000000;fill-opacity:1;stroke:none;stroke-width:5.77591658;stroke-miterlimit:4;stroke-dasharray:none;stroke-opacity:1" />
    <path
       id="path16"
       d="m 155.82617,355.38738 c -2.59321,-0.39404 -2.3476,0.0292 -7.98663,-13.76235 L 71.306611,160.25316 -3.7749543,-17.546828 c -2.82404,-6.728735 -3.46716,-8.482539 -3.39184,-9.249595 0.16746,-1.705329 -3.2622897,-1.589976 49.9526053,-1.680094 26.55755,-0.04497 48.39198,0.09249 50.46484,0.08953 1.59698,0.125579 2.40907,0.326036 3.04271,0.751052 1.02581,0.688067 2.79175,3.91093 3.64355,6.649524 18.607909,44.377714 4.056169,9.441686 6.131779,14.6830013 l 12.47613,29.6947127 c 0,1.098764 -0.66681,1.605185 -2.39824,1.821397 -0.83952,0.104836 -10.24772,0.200657 -20.907119,0.212937 -19.01265,0.02191 -19.39078,0.03237 -19.9099,0.551492 -0.7162,0.716198 -0.6789,2.101003 0.0982,3.646815 4.95485,11.406917 0,0 14.14181,33.13164 11.817619,28.585344 3.85112,9.392671 10.602959,25.398624 1.42174,3.26429 1.86989,5.0591 3.69466,6.82674 l 2.65155,1.14512 c 1.47751,0.21222 12.43848,0.18432 18.65772,0.17929 11.07443,0.0106 20.7635,-0.0857 21.53124,0.0236 1.6357,0.23284 2.66115,0.90789 3.28938,2.16534 3.69919,8.532182 0,0 10.3179,23.923352 10.78648,25.68972 6.07722,14.42864 9.44031,22.09271 0.73644,1.67349 1.3422,3.29215 1.34617,3.59701 0.004,0.30488 -0.24326,0.78113 -0.54941,1.05833 -0.53348,0.48305 -1.39012,0.5111 -20.57135,0.67358 -20.19369,0.17105 -21.78074,0.25265 -22.53274,1.15877 -0.56703,0.6832 0.28478,3.9707 0.75483,5.89526 0.83458,3.41708 1.16633,1.5551 24.06356,89.18466 27.7402,106.16397 28.80549,102.25768 29.31922,103.85334 1.07519,3.33954 1.079,4.24219 0.0212,5.02891 -0.73014,0.54308 -1.00766,0.55626 -12.56771,0.59695 -6.5016,0.0227 -12.44745,-0.0536 -13.213,-0.16989 z"
       style="fill:#000000;stroke-width:0.26458332" />
    <path
       style="fill:#ffdb4c;fill-opacity:1;stroke-width:0.99999994"
       d="m 811.2207,1108.5078 c -11.68985,-0.12 -31.64803,1.7586 -39.33984,4.1895 -4.40001,1.3905 -11.01231,3.2182 -14.69531,4.0605 -12.60178,2.8817 -28.71691,10.4959 -49.80469,23.5352 -18.02816,11.1473 -39.19064,32.0941 -55.75,55.1777 -7.2703,10.1346 -21.35207,38.0673 -29.25,57.7051 -5.94713,19.4515 -8.24953,27.9004 -11.94727,47.5273 -3.5791,25.1032 -4.1275,26.6686 -5.04687,60.1387 -0.001,39.1438 1.92447,55.9948 10.51953,92 3.16339,13.2514 5.37849,23.0361 17.35547,51.8144 16.22642,35.9605 5.50192,13.9196 25.77734,49.1856 9.59569,15.958 23.06186,34.251 38.21289,51.9082 7.32582,8.5377 42.16282,42.7714 49.98633,49.1211 16.81724,13.5902 24.47833,20.2194 58.03906,41.5605 34.01269,22.3572 59.24373,33.1282 71.52735,37.8457 2.79167,1.0722 10.47617,4.275 17.07617,7.1172 6.6,2.8425 16.72499,6.6716 22.5,8.5078 5.775,1.8363 13.87502,4.4404 18,5.7872 11.79821,3.852 21.57235,6.5026 34,9.2226 6.325,1.3844 14.91394,3.5931 19.08594,4.9063 4.17199,1.3132 12.26999,2.9031 17.9961,3.5332 39.1047,6.3748 25.9719,5.0851 39.1055,6.375 6.7723,0.7363 21.0997,1.4006 31.8398,1.4765 16.2144,0.1152 19.9046,-0.1253 21.75,-1.4179 3.0581,-2.1421 2.9002,-7.18 -0.4316,-13.7266 l -46.002,-109.4668 -30.2793,-72.7148 c -2.5648,-8.3805 -7.3089,-16.0925 -11.1074,-18.0567 -1.5295,-0.791 -6.9833,-1.9075 -12.11915,-2.4805 -11.03029,-1.2306 -46.73687,-7.6283 -50.44727,-9.039 -1.42038,-0.5401 -6.49898,-2.084 -11.28515,-3.4297 -20.66789,-5.811 -43.81505,-16.6662 -64.60547,-30.2969 -13.96917,-9.1586 -17.65673,-12.1836 -29.06055,-23.8418 -7.18393,-7.3441 -14.74099,-15.7233 -16.79297,-18.6211 -18.75178,-26.4805 -29.00322,-61.0461 -25.77539,-86.9101 1.95716,-15.6823 5.28475,-27.2361 10.75977,-37.3594 3.9959,-7.3884 7.01712,-11.1577 16.86914,-21.0527 9.6757,-9.718 13.75251,-13.0338 21.04492,-17.1153 9.33714,-5.226 29.54184,-12.684 37.45508,-13.8242 6.96283,-1.0031 10.92226,-2.4932 12.00781,-4.5215 1.54239,-2.882 1.14288,-7.0693 -1.14453,-11.9863 l -36.00195,-84.7559 -31.04297,-76.2441 c -3.55321,-8.9968 -6.62801,-13.2641 -10.80469,-14.9941 -1.29871,-0.538 -4.27721,-0.7999 -8.17383,-0.8399 z m 149.91407,520.8594 a 30.522121,30.522121 0 0 1 30.52148,30.5215 30.522121,30.522121 0 0 1 -30.52148,30.5215 30.522121,30.522121 0 0 1 -30.52149,-30.5215 30.522121,30.522121 0 0 1 30.52149,-30.5215 z"
       transform="matrix(0.26458333,0,0,0.26458333,-157.60463,-116.19462)"
       id="path14" />
    <path
       style="fill:#366c98;fill-opacity:1;stroke-width:0.99999994"
       d="m 1048.6172,332.59375 c -4.287,0.0451 -5.7871,0.4235 -6.9863,1.27148 -2.7631,1.9538 -2.8823,5.31568 -0.3633,10.26758 l 40.0605,96.70313 39.5606,91.10351 c 2.3715,1.55393 3.9904,1.87811 34.1699,6.87891 11.6471,1.92995 24.6971,4.61216 29,5.95898 l 28.1777,8.46485 c 3.6546,1.58387 12.2696,5.22382 19.1446,8.08984 29.6497,12.36029 63.535,39.29737 78.2539,62.20703 21.2252,33.03655 27.4505,57.30299 23.7382,92.53906 -0.7728,7.3361 -1.8921,11.39021 -5.4394,19.69532 -9.1294,21.3739 -19.8196,33.92567 -39.3184,46.16601 -15.4232,9.68198 -24.674,12.96742 -47.4121,16.83985 -4.8387,0.82405 -8.0722,3.53903 -8.0722,6.77929 0,2.9367 3.8073,13.64766 8.8086,24.78321 9.5755,21.52732 -0,2.6e-4 31.3554,74.40234 35.2887,85.59795 20.9015,58.34205 35.2891,85.59766 2.8465,7.43565 4.3293,9.51973 8.0957,11.377 4.6263,2.2812 21.7307,2.1209 33.2012,-0.3106 4.95,-1.0493 13.5,-2.85248 19,-4.00781 15.26,-3.20545 33.2153,-10.79834 56,-23.67969 13.196,-7.46041 19.0254,-12.21754 35.5761,-29.03515 13.964,-14.18914 18.0926,-19.12847 26.2051,-31.34375 10.3995,-15.659 19.5544,-32.63147 23.1934,-43 1.2547,-3.57502 3.2175,-8.75002 4.3613,-11.5 3.2576,-7.83232 7.9417,-24.82189 10.6152,-38.5 1.3438,-6.87497 3.1167,-15.65003 3.9395,-19.5 1.4503,-6.78618 4.034,-40.3504 3.9648,-51.5 -0.1061,-17.10763 -2.3961,-46.18015 -4.2148,-53.5 l -3.1328,-18.41407 c -0.6295,-5.72801 -2.2195,-13.82801 -3.5352,-18 -1.3156,-4.17197 -3.114,-10.70459 -3.9961,-14.51757 -0.8821,-3.81298 -2.7346,-9.61639 -4.1152,-12.89649 -1.3805,-3.28009 -3.655,-9.16143 -5.0547,-13.06836 -1.3996,-3.90692 -5.3778,-12.95351 -8.8418,-20.10351 -3.4641,-7.15 -7.0182,-14.75771 -7.8965,-16.90625 -3.5188,-8.60798 -20.5242,-35.97604 -32.7617,-52.72657 -26.4961,-36.26775 -76.7208,-82.29265 -118.541,-108.62695 -18.6679,-11.75522 -49.0599,-28.61122 -57.8027,-32.05859 -2.7292,-1.07615 -10.3629,-4.52002 -16.9629,-7.65235 -22.7544,-10.04344 -37.7133,-15.14259 -60.877,-22.61523 -38.0849,-11.309 -12.2321,-4.10021 -50.623,-13.42578 -11.078,-2.7981 -50.3739,-8.8883 -67,-10.38477 -6.325,-0.56929 -18.7001,-1.2911 -27.5,-1.60351 -5.1165,-0.18166 -8.6915,-0.27512 -11.2637,-0.24805 z m 118.4551,76.14258 a 30.522121,30.522121 0 0 1 30.5215,30.52148 30.522121,30.522121 0 0 1 -30.5215,30.52344 30.522121,30.522121 0 0 1 -30.5235,-30.52344 30.522121,30.522121 0 0 1 30.5235,-30.52148 z"
       transform="matrix(0.26458333,0,0,0.26458333,-157.60463,-116.19462)"
       id="path32" />
  </g>
</svg>
